<svg xmlns="http://www.w3.org/2000/svg" viewBox="0 0 32 32" width="32" height="32" fill="none">
  <defs>
    <linearGradient id="tooth-grad" x1="0%" y1="0%" x2="100%" y2="100%">
      <stop offset="0%" stop-color="#0066FF" />
      <stop offset="100%" stop-color="#00F5D4" />
    </linearGradient>
  </defs>
  <!-- Tooth Shape -->
  <path d="M 16 6 C 12 6, 7 8, 7 14 C 7 19, 9.5 20.5, 9.5 23.5 C 9.5 26.5, 11 28, 12 28 C 13 28, 14 25, 16 22 C 18 25, 19 28, 20 28 C 21 28, 22.5 26.5, 22.5 23.5 C 22.5 20.5, 25 19, 25 14 C 25 8, 20 6, 16 6 Z" fill="url(#tooth-grad)" />
  <!-- Sparkle Shape -->
  <path d="M 24 4 Q 24 7 27 7 Q 24 7 24 10 Q 24 7 21 7 Q 24 7 24 4 Z" fill="#FFFFFF" />
</svg>